<?xml version="1.0" standalone="no"?>
<!DOCTYPE svg PUBLIC "-//W3C//DTD SVG 20010904//EN"
 "http://www.w3.org/TR/2001/REC-SVG-20010904/DTD/svg10.dtd">
<svg version="1.0" xmlns="http://www.w3.org/2000/svg"
 width="1600.000000pt" height="1600.000000pt" viewBox="0 0 1600.000000 1600.000000"
 preserveAspectRatio="xMidYMid meet">

<g transform="translate(0.000000,1600.000000) scale(0.100000,-0.100000)"
fill="#ffffff" stroke="none">
<path d="M7690 15358 c-1268 -34 -2545 -425 -3635 -1111 -321 -202 -667 -462
-954 -715 -154 -136 -464 -445 -609 -607 -1144 -1279 -1805 -2931 -1851 -4623
-12 -466 9 -855 69 -1282 348 -2462 1965 -4603 4248 -5627 264 -118 420 -175
492 -180 127 -9 250 66 303 185 14 31 296 770 627 1642 331 872 686 1806 788
2075 l187 490 0 90 c0 81 -3 95 -30 144 -41 74 -101 123 -198 162 -808 319
-1353 1065 -1406 1922 -65 1059 608 2003 1627 2283 255 69 594 95 852 64 909
-110 1655 -759 1884 -1640 55 -210 70 -335 70 -565 0 -230 -15 -356 -70 -565
-177 -678 -675 -1238 -1333 -1497 -127 -51 -191 -113 -227 -222 -33 -101 -29
-115 249 -846 140 -368 501 -1318 801 -2110 311 -820 558 -1457 574 -1480 63
-91 174 -142 286 -132 43 4 108 24 221 70 766 311 1427 716 2065 1263 157 135
496 469 648 639 1432 1601 2085 3709 1806 5835 -104 794 -326 1528 -683 2255
-517 1053 -1259 1945 -2201 2647 -1137 847 -2493 1343 -3900 1428 -239 14
-411 16 -700 8z m815 -652 c678 -61 1314 -212 1921 -457 856 -345 1595 -837
2246 -1495 208 -210 306 -320 477 -534 752 -940 1244 -2092 1396 -3275 50
-387 69 -916 46 -1280 -81 -1283 -519 -2482 -1281 -3510 -194 -261 -360 -454
-609 -708 -558 -568 -1172 -1007 -1894 -1357 -225 -109 -231 -111 -245 -73 -5
15 -278 735 -605 1598 -327 864 -625 1650 -662 1748 -37 98 -66 179 -64 181 2
2 54 31 114 66 232 132 426 281 620 475 435 434 704 965 800 1575 26 160 31
540 11 714 -53 460 -208 886 -458 1261 -109 165 -195 271 -333 414 -448 464
-1016 752 -1670 847 -149 22 -570 25 -715 6 -657 -88 -1226 -366 -1681 -821
-563 -563 -862 -1317 -836 -2106 24 -718 306 -1369 816 -1884 186 -187 448
-385 664 -502 66 -35 78 -45 74 -63 -2 -11 -160 -433 -351 -936 -191 -503
-491 -1296 -668 -1761 l-320 -847 -47 20 c-117 50 -461 225 -605 308 -1810
1037 -3021 2803 -3310 4830 -48 333 -60 517 -60 915 0 375 7 513 45 825 157
1309 696 2522 1575 3550 126 148 526 548 674 674 952 814 2051 1331 3265 1535
228 39 449 62 805 85 124 8 707 -4 865 -18z"/>
</g>
</svg>
